<?xml version="1.0" encoding="UTF-8" standalone="no"?>
<!-- Created with Inkscape (http://www.inkscape.org/) -->

<svg
   width="297mm"
   height="210mm"
   viewBox="0 0 297 210"
   version="1.1"
   id="svg1"
   inkscape:version="1.3 (0e150ed, 2023-07-21)"
   sodipodi:docname="drawing.svg"
   inkscape:export-filename="drawing.pdf"
   inkscape:export-xdpi="96"
   inkscape:export-ydpi="96"
   xmlns:inkscape="http://www.inkscape.org/namespaces/inkscape"
   xmlns:sodipodi="http://sodipodi.sourceforge.net/DTD/sodipodi-0.dtd"
   xmlns="http://www.w3.org/2000/svg"
   xmlns:svg="http://www.w3.org/2000/svg">
  <sodipodi:namedview
     id="namedview1"
     pagecolor="#ffffff"
     bordercolor="#000000"
     borderopacity="0.25"
     inkscape:showpageshadow="2"
     inkscape:pageopacity="0.0"
     inkscape:pagecheckerboard="0"
     inkscape:deskcolor="#d1d1d1"
     inkscape:document-units="mm"
     inkscape:zoom="0.92737795"
     inkscape:cx="812.50584"
     inkscape:cy="273.35133"
     inkscape:window-width="2560"
     inkscape:window-height="1302"
     inkscape:window-x="1920"
     inkscape:window-y="25"
     inkscape:window-maximized="0"
     inkscape:current-layer="layer1" />
  <defs
     id="defs1">
    <inkscape:path-effect
       effect="spiro"
       id="path-effect52"
       is_visible="true"
       lpeversion="1" />
    <inkscape:path-effect
       effect="spiro"
       id="path-effect51"
       is_visible="true"
       lpeversion="1" />
    <inkscape:path-effect
       effect="spiro"
       id="path-effect50"
       is_visible="true"
       lpeversion="1" />
    <rect
       x="404.36588"
       y="599.53981"
       width="180.37099"
       height="218.89673"
       id="rect49" />
    <inkscape:path-effect
       effect="spiro"
       id="path-effect47"
       is_visible="true"
       lpeversion="1" />
    <inkscape:path-effect
       effect="spiro"
       id="path-effect46"
       is_visible="true"
       lpeversion="1" />
    <inkscape:path-effect
       effect="spiro"
       id="path-effect45"
       is_visible="true"
       lpeversion="1" />
    <inkscape:path-effect
       effect="spiro"
       id="path-effect40"
       is_visible="true"
       lpeversion="1" />
    <inkscape:path-effect
       effect="spiro"
       id="path-effect39"
       is_visible="true"
       lpeversion="1" />
    <inkscape:path-effect
       effect="spiro"
       id="path-effect38"
       is_visible="true"
       lpeversion="1" />
    <inkscape:path-effect
       effect="spiro"
       id="path-effect37"
       is_visible="true"
       lpeversion="1" />
    <inkscape:path-effect
       effect="spiro"
       id="path-effect36"
       is_visible="true"
       lpeversion="1" />
    <inkscape:path-effect
       effect="spiro"
       id="path-effect35"
       is_visible="true"
       lpeversion="1" />
    <inkscape:path-effect
       effect="spiro"
       id="path-effect34"
       is_visible="true"
       lpeversion="1" />
    <inkscape:path-effect
       effect="spiro"
       id="path-effect33"
       is_visible="true"
       lpeversion="1" />
    <inkscape:path-effect
       effect="spiro"
       id="path-effect32"
       is_visible="true"
       lpeversion="1" />
    <inkscape:path-effect
       effect="spiro"
       id="path-effect31"
       is_visible="true"
       lpeversion="1" />
    <inkscape:path-effect
       effect="spiro"
       id="path-effect30"
       is_visible="true"
       lpeversion="1" />
    <inkscape:path-effect
       effect="spiro"
       id="path-effect29"
       is_visible="true"
       lpeversion="1" />
    <inkscape:path-effect
       effect="spiro"
       id="path-effect28"
       is_visible="true"
       lpeversion="1" />
    <inkscape:path-effect
       effect="spiro"
       id="path-effect27"
       is_visible="true"
       lpeversion="1" />
  </defs>
  <g
     inkscape:label="Layer 1"
     inkscape:groupmode="layer"
     id="layer1">
    <text
       xml:space="preserve"
       style="font-style:normal;font-variant:normal;font-weight:normal;font-stretch:normal;font-size:5.29167px;font-family:Sans;-inkscape-font-specification:'Sans, Normal';font-variant-ligatures:normal;font-variant-caps:normal;font-variant-numeric:normal;font-variant-east-asian:normal;fill:#000000;fill-opacity:1;stroke-width:0.264583"
       x="95.57637"
       y="12.268011"
       id="text2"><tspan
         sodipodi:role="line"
         id="tspan2"
         x="95.57637"
         y="12.268011" /></text>
    <text
       xml:space="preserve"
       transform="scale(0.26458333)"
       id="text49"
       style="font-style:normal;font-variant:normal;font-weight:normal;font-stretch:normal;font-size:20px;font-family:Sans;-inkscape-font-specification:'Sans, Normal';font-variant-ligatures:normal;font-variant-caps:normal;font-variant-numeric:normal;font-variant-east-asian:normal;white-space:pre;shape-inside:url(#rect49);display:inline;fill:#000000;fill-opacity:1" />
    <g
       id="g52"
       transform="matrix(1,0,0,1.138678,-3.1259809,-0.79962727)">
      <path
         style="fill:#000000;fill-opacity:1;stroke-width:0.264583"
         d="m 168.89913,105.56196 -42.15367,49.21469"
         id="path28"
         inkscape:path-effect="#path-effect28"
         inkscape:original-d="m 168.89913,105.56196 -42.15367,49.21469" />
      <g
         id="g3"
         transform="matrix(1.4681691,0,0,1.5487798,3.500088,-2.4771681)">
        <path
           d="m 99.998547,3.9940715 a 12.410664,6.134006 0 0 0 -1.620056,0.05271 12.410664,6.134006 0 0 0 -1.592151,0.1565796 12.410664,6.134006 0 0 0 -1.537374,0.2578654 12.410664,6.134006 0 0 0 -1.455725,0.3550171 12.410664,6.134006 0 0 0 -1.349788,0.4454508 12.410664,6.134006 0 0 0 -1.220597,0.5291667 12.410664,6.134006 0 0 0 -1.070219,0.603064 12.410664,6.134006 0 0 0 -0.902271,0.6671427 12.410664,6.134006 0 0 0 -0.717785,0.7198527 12.410664,6.134006 0 0 0 -0.521932,0.7596436 12.410664,6.134006 0 0 0 -0.316777,0.787032 12.410664,6.134006 0 0 0 -0.105937,0.8004679 12.410664,6.134006 0 0 0 0.105937,0.800985 12.410664,6.134006 0 0 0 0.316777,0.787032 12.410664,6.134006 0 0 0 0.521932,0.759643 12.410664,6.134006 0 0 0 0.717785,0.719336 12.410664,6.134006 0 0 0 0.902271,0.667143 12.410664,6.134006 0 0 0 1.070219,0.603581 12.410664,6.134006 0 0 0 1.220597,0.52865 12.410664,6.134006 0 0 0 1.349788,0.445967 12.410664,6.134006 0 0 0 1.455725,0.355017 12.410664,6.134006 0 0 0 1.537374,0.257866 12.410664,6.134006 0 0 0 1.592151,0.156579 12.410664,6.134006 0 0 0 1.620056,0.05219 12.410664,6.134006 0 0 0 1.620053,-0.05219 12.410664,6.134006 0 0 0 1.59215,-0.156579 12.410664,6.134006 0 0 0 1.53738,-0.257866 12.410664,6.134006 0 0 0 1.45572,-0.355017 12.410664,6.134006 0 0 0 1.34979,-0.445967 12.410664,6.134006 0 0 0 1.2206,-0.52865 12.410664,6.134006 0 0 0 1.07022,-0.603581 12.410664,6.134006 0 0 0 0.90227,-0.667143 12.410664,6.134006 0 0 0 0.71778,-0.719336 12.410664,6.134006 0 0 0 0.52194,-0.759643 12.410664,6.134006 0 0 0 0.31677,-0.787032 12.410664,6.134006 0 0 0 0.005,-0.01705 12.410664,6.134006 0 0 0 0.004,-0.01705 12.410664,6.134006 0 0 0 0.004,-0.01654 12.410664,6.134006 0 0 0 0.004,-0.01705 12.410664,6.134006 0 0 0 0.004,-0.01705 12.410664,6.134006 0 0 0 0.004,-0.01705 12.410664,6.134006 0 0 0 0.004,-0.01705 12.410664,6.134006 0 0 0 0.004,-0.01705 12.410664,6.134006 0 0 0 0.004,-0.01705 12.410664,6.134006 0 0 0 0.004,-0.01654 12.410664,6.134006 0 0 0 0.004,-0.01705 12.410664,6.134006 0 0 0 0.003,-0.01705 12.410664,6.134006 0 0 0 0.004,-0.01705 12.410664,6.134006 0 0 0 0.003,-0.01705 12.410664,6.134006 0 0 0 0.003,-0.01705 12.410664,6.134006 0 0 0 0.003,-0.01705 12.410664,6.134006 0 0 0 0.003,-0.01705 12.410664,6.134006 0 0 0 0.003,-0.01705 12.410664,6.134006 0 0 0 0.003,-0.01705 12.410664,6.134006 0 0 0 0.003,-0.01705 12.410664,6.134006 0 0 0 0.003,-0.01705 12.410664,6.134006 0 0 0 0.003,-0.01705 12.410664,6.134006 0 0 0 0.003,-0.01705 12.410664,6.134006 0 0 0 0.002,-0.01705 12.410664,6.134006 0 0 0 0.002,-0.01705 12.410664,6.134006 0 0 0 0.002,-0.01705 12.410664,6.134006 0 0 0 0.002,-0.01705 12.410664,6.134006 0 0 0 0.002,-0.01705 12.410664,6.134006 0 0 0 0.002,-0.01705 12.410664,6.134006 0 0 0 0.002,-0.01705 12.410664,6.134006 0 0 0 0.002,-0.01705 12.410664,6.134006 0 0 0 0.002,-0.01705 12.410664,6.134006 0 0 0 0.002,-0.01705 12.410664,6.134006 0 0 0 0.001,-0.01705 12.410664,6.134006 0 0 0 0.002,-0.01705 12.410664,6.134006 0 0 0 0.001,-0.01705 12.410664,6.134006 0 0 0 10e-4,-0.01705 12.410664,6.134006 0 0 0 0.001,-0.01705 12.410664,6.134006 0 0 0 5.2e-4,-0.01705 12.410664,6.134006 0 0 0 0.001,-0.01757 12.410664,6.134006 0 0 0 5.2e-4,-0.01705 12.410664,6.134006 0 0 0 5.2e-4,-0.01705 12.410664,6.134006 0 0 0 5.1e-4,-0.01705 12.410664,6.134006 0 0 0 0,-0.01705 12.410664,6.134006 0 0 0 5.2e-4,-0.01705 12.410664,6.134006 0 0 0 0,-0.01705 12.410664,6.134006 0 0 0 0,-0.01705 12.410664,6.134006 0 0 0 -0.0119,-0.2671671 12.410664,6.134006 0 0 0 -0.0351,-0.2671671 12.410664,6.134006 0 0 0 -0.0589,-0.2661337 12.410664,6.134006 0 0 0 -0.0827,-0.2645833 12.410664,6.134006 0 0 0 -0.10542,-0.2625163 12.410664,6.134006 0 0 0 -0.12867,-0.2599324 12.410664,6.134006 0 0 0 -0.15142,-0.2568319 12.410664,6.134006 0 0 0 -0.17415,-0.2532145 12.410664,6.134006 0 0 0 -0.19637,-0.2495972 12.410664,6.134006 0 0 0 -0.21807,-0.2449463 12.410664,6.134006 0 0 0 -0.23926,-0.2402954 12.410664,6.134006 0 0 0 -0.26045,-0.234611 12.410664,6.134006 0 0 0 -0.28112,-0.2284098 12.410664,6.134006 0 0 0 -0.30076,-0.2227254 12.410664,6.134006 0 0 0 -0.32039,-0.2160075 12.410664,6.134006 0 0 0 -0.339,-0.2087728 12.410664,6.134006 0 0 0 -0.35657,-0.2010213 12.410664,6.134006 0 0 0 -0.37465,-0.1932699 12.410664,6.134006 0 0 0 -0.39119,-0.1850016 12.410664,6.134006 0 0 0 -0.40721,-0.1767334 12.410664,6.134006 0 0 0 -0.4222,-0.1674317 12.410664,6.134006 0 0 0 -0.43666,-0.1581298 12.410664,6.134006 0 0 0 -0.45011,-0.1488282 12.410664,6.134006 0 0 0 -0.46302,-0.1384928 12.410664,6.134006 0 0 0 -0.4749,-0.1286743 12.410664,6.134006 0 0 0 -0.48524,-0.1188558 12.410664,6.134006 0 0 0 -0.49558,-0.107487 12.410664,6.134006 0 0 0 -0.50488,-0.097152 12.410664,6.134006 0 0 0 -0.51263,-0.085783 12.410664,6.134006 0 0 0 -0.51987,-0.074931 12.410664,6.134006 0 0 0 -0.52606,-0.063562 12.410664,6.134006 0 0 0 -0.53124,-0.052193 12.410664,6.134006 0 0 0 -0.53485,-0.040824 12.410664,6.134006 0 0 0 -0.53846,-0.029456 12.410664,6.134006 0 0 0 -0.54002,-0.017053 12.410664,6.134006 0 0 0 -0.54157,-0.0062 z"
           style="fill:#55aa00;stroke-width:0.197411"
           id="path4" />
        <text
           xml:space="preserve"
           style="font-style:normal;font-variant:normal;font-weight:normal;font-stretch:normal;font-size:5.29167px;font-family:Sans;-inkscape-font-specification:'Sans, Normal';font-variant-ligatures:normal;font-variant-caps:normal;font-variant-numeric:normal;font-variant-east-asian:normal;fill:#000000;fill-opacity:1;stroke-width:0.264583"
           x="89.870323"
           y="12.268009"
           id="text3"><tspan
             sodipodi:role="line"
             id="tspan3"
             style="stroke-width:0.264583"
             x="89.870323"
             y="12.268009">(3,3,-1)</tspan></text>
      </g>
      <ellipse
         style="fill:#44aa00;fill-opacity:1;stroke-width:0.297683"
         id="path1-5"
         cx="27.73324"
         cy="68.161087"
         rx="18.220953"
         ry="9.5002251" />
      <text
         xml:space="preserve"
         style="font-style:normal;font-variant:normal;font-weight:normal;font-stretch:normal;font-size:7.9795px;font-family:Sans;-inkscape-font-specification:'Sans, Normal';font-variant-ligatures:normal;font-variant-caps:normal;font-variant-numeric:normal;font-variant-east-asian:normal;fill:#000000;fill-opacity:1;stroke-width:0.398974"
         x="13.211705"
         y="69.590202"
         id="text3-9"
         transform="scale(0.97362833,1.027086)"><tspan
           sodipodi:role="line"
           id="tspan3-5"
           style="stroke-width:0.398974"
           x="13.211705"
           y="69.590202">(2,2,1)</tspan></text>
      <text
         xml:space="preserve"
         style="font-style:normal;font-variant:normal;font-weight:normal;font-stretch:normal;font-size:7.9795px;font-family:Sans;-inkscape-font-specification:'Sans, Normal';font-variant-ligatures:normal;font-variant-caps:normal;font-variant-numeric:normal;font-variant-east-asian:normal;fill:#000000;fill-opacity:1;stroke-width:0.398974"
         x="78.732185"
         y="30.934055"
         id="text40"
         transform="scale(0.97362833,1.027086)"><tspan
           id="tspan40"
           style="stroke-width:0.398974"
           x="78.732185"
           y="30.934055"
           sodipodi:role="line">FC</tspan></text>
      <g
         id="g3-6-7"
         transform="matrix(1.4681691,0,0,1.5487798,-55.216872,53.324652)">
        <ellipse
           style="fill:#44aa00;fill-opacity:1;stroke-width:0.197411"
           id="path1-5-5"
           cx="99.99855"
           cy="10.128242"
           rx="12.410664"
           ry="6.134006" />
        <text
           xml:space="preserve"
           style="font-style:normal;font-variant:normal;font-weight:normal;font-stretch:normal;font-size:5.29167px;font-family:Sans;-inkscape-font-specification:'Sans, Normal';font-variant-ligatures:normal;font-variant-caps:normal;font-variant-numeric:normal;font-variant-east-asian:normal;fill:#000000;fill-opacity:1;stroke-width:0.264583"
           x="89.870323"
           y="12.268009"
           id="text3-9-5"><tspan
             sodipodi:role="line"
             id="tspan3-5-4"
             style="stroke-width:0.264583"
             x="89.870323"
             y="12.268009">(2,3,1)</tspan></text>
      </g>
      <g
         id="g49"
         transform="translate(104.32124,11.982709)">
        <ellipse
           style="fill:#44aa00;fill-opacity:1;stroke-width:0.297683"
           id="path1-5-5-6"
           cx="77.486267"
           cy="112.69836"
           rx="18.220953"
           ry="9.5002251" />
        <text
           xml:space="preserve"
           style="font-style:normal;font-variant:normal;font-weight:normal;font-stretch:normal;font-size:7.9795px;font-family:Sans;-inkscape-font-specification:'Sans, Normal';font-variant-ligatures:normal;font-variant-caps:normal;font-variant-numeric:normal;font-variant-east-asian:normal;fill:#000000;fill-opacity:1;stroke-width:0.398974"
           x="64.31234"
           y="112.95295"
           id="text3-9-5-3"
           transform="scale(0.97362833,1.027086)"><tspan
             sodipodi:role="line"
             id="tspan3-5-4-4"
             style="stroke-width:0.398974"
             x="64.31234"
             y="112.95295">(2,3,-1)</tspan></text>
      </g>
      <text
         xml:space="preserve"
         style="font-style:normal;font-variant:normal;font-weight:normal;font-stretch:normal;font-size:7.9795px;font-family:Sans;-inkscape-font-specification:'Sans, Normal';font-variant-ligatures:normal;font-variant-caps:normal;font-variant-numeric:normal;font-variant-east-asian:normal;fill:#000000;fill-opacity:1;stroke-width:0.398974"
         x="46.998539"
         y="102.77811"
         id="text46"
         transform="scale(0.97362832,1.027086)"><tspan
           sodipodi:role="line"
           id="tspan46"
           style="fill:#000000;stroke-width:0.398974"
           x="46.998539"
           y="102.77811">F</tspan></text>
      <text
         xml:space="preserve"
         style="font-style:normal;font-variant:normal;font-weight:normal;font-stretch:normal;font-size:7.9795px;font-family:Sans;-inkscape-font-specification:'Sans, Normal';font-variant-ligatures:normal;font-variant-caps:normal;font-variant-numeric:normal;font-variant-east-asian:normal;fill:#000000;fill-opacity:1;stroke-width:0.398974"
         x="99.925484"
         y="96.871407"
         id="text47"
         transform="scale(0.97362832,1.027086)"><tspan
           sodipodi:role="line"
           id="tspan47"
           style="stroke-width:0.398974"
           x="99.925484"
           y="96.871407">C</tspan></text>
      <ellipse
         style="fill:#ff8080;fill-opacity:1;stroke-width:0.297683"
         id="path1-5-5-5"
         cx="152.90485"
         cy="69.011063"
         rx="18.220953"
         ry="9.5002251" />
      <text
         xml:space="preserve"
         style="font-style:normal;font-variant:normal;font-weight:normal;font-stretch:normal;font-size:7.9795px;font-family:Sans;-inkscape-font-specification:'Sans, Normal';font-variant-ligatures:normal;font-variant-caps:normal;font-variant-numeric:normal;font-variant-east-asian:normal;fill:#000000;fill-opacity:1;stroke-width:0.398974"
         x="141.77371"
         y="70.417763"
         id="text3-9-5-2"
         transform="scale(0.97362833,1.027086)"><tspan
           sodipodi:role="line"
           id="tspan3-5-4-2"
           style="stroke-width:0.398974"
           x="141.77371"
           y="70.417763">(3,1,1)</tspan></text>
      <g
         id="g50"
         transform="translate(68.934849,11.982709)">
        <ellipse
           style="fill:#ff8080;fill-opacity:1;stroke-width:0.297683"
           id="path1-5-5-5-8"
           cx="21.481274"
           cy="112.69836"
           rx="18.220953"
           ry="9.5002251" />
        <text
           xml:space="preserve"
           style="font-style:normal;font-variant:normal;font-weight:normal;font-stretch:normal;font-size:7.9795px;font-family:Sans;-inkscape-font-specification:'Sans, Normal';font-variant-ligatures:normal;font-variant-caps:normal;font-variant-numeric:normal;font-variant-east-asian:normal;fill:#000000;fill-opacity:1;stroke-width:0.398974"
           x="6.8174944"
           y="111.95496"
           id="text3-9-5-2-9"
           transform="scale(0.97362833,1.027086)"><tspan
             sodipodi:role="line"
             id="tspan3-5-4-2-9"
             style="stroke-width:0.398974"
             x="6.8174944"
             y="111.95496">(3,2,1)</tspan></text>
      </g>
      <g
         id="g3-6-7-3-8"
         transform="matrix(1.4681691,0,0,1.5487798,67.397005,53.324652)">
        <ellipse
           style="fill:#ff8080;fill-opacity:1;stroke-width:0.197411"
           id="path1-5-5-5-4"
           cx="99.99855"
           cy="10.128242"
           rx="12.410664"
           ry="6.134006" />
        <text
           xml:space="preserve"
           style="font-style:normal;font-variant:normal;font-weight:normal;font-stretch:normal;font-size:5.29167px;font-family:Sans;-inkscape-font-specification:'Sans, Normal';font-variant-ligatures:normal;font-variant-caps:normal;font-variant-numeric:normal;font-variant-east-asian:normal;fill:#000000;fill-opacity:1;stroke-width:0.264583"
           x="89.870323"
           y="12.268009"
           id="text3-9-5-2-1"><tspan
             sodipodi:role="line"
             id="tspan3-5-4-2-7"
             style="stroke-width:0.264583"
             x="89.870323"
             y="12.268009">(3,2,1)</tspan></text>
      </g>
      <g
         id="g3-6-7-3-8-8"
         transform="matrix(1.4681691,0,0,1.5487798,128.70394,53.324652)">
        <ellipse
           style="fill:#44aa00;fill-opacity:1;stroke-width:0.197411"
           id="path1-5-5-5-4-7"
           cx="99.99855"
           cy="10.128242"
           rx="12.410664"
           ry="6.134006" />
        <text
           xml:space="preserve"
           style="font-style:normal;font-variant:normal;font-weight:normal;font-stretch:normal;font-size:5.29167px;font-family:Sans;-inkscape-font-specification:'Sans, Normal';font-variant-ligatures:normal;font-variant-caps:normal;font-variant-numeric:normal;font-variant-east-asian:normal;fill:#000000;fill-opacity:1;stroke-width:0.264583"
           x="89.870323"
           y="12.268009"
           id="text3-9-5-2-1-7"><tspan
             sodipodi:role="line"
             id="tspan3-5-4-2-7-4"
             style="stroke-width:0.264583"
             x="89.870323"
             y="12.268009">(1,3,1)</tspan></text>
      </g>
      <path
         style="fill:#000000;fill-opacity:1;stroke-width:0.398974"
         d="m 60.885612,111.52552 95.502928,61.86193"
         id="path22" />
      <path
         style="fill:#000000;fill-opacity:1;stroke-width:0.398974"
         d="m 185.29072,142.45648 h 22.61913"
         id="path23" />
      <path
         style="fill:#000000;fill-opacity:1;stroke-width:0.398974"
         d="M 145.91672,177.36428 88.531195,111.52552"
         id="path26" />
      <path
         style="fill:#000000;fill-opacity:1;stroke-width:0.264583"
         d="m 100.42651,115.83285 10.8415,4.85014"
         id="path29"
         inkscape:path-effect="#path-effect29"
         inkscape:original-d="m 100.42651,115.83285 10.8415,4.85014"
         transform="matrix(1.4681691,0,0,1.5487798,-1.5263814,-2.0352972)" />
      <path
         style="fill:none;stroke:#000000;stroke-width:0.264583px;stroke-linecap:butt;stroke-linejoin:miter;stroke-opacity:1"
         d="M 91.434279,11.430778 21.67145,39.738469"
         id="path35"
         inkscape:path-effect="#path-effect36"
         inkscape:original-d="M 91.434279,11.430778 21.67145,39.738469"
         transform="matrix(1.4681691,0,0,1.5487798,-4.0841183,-2.8852759)" />
      <path
         style="fill:none;stroke:#000000;stroke-width:0.264583px;stroke-linecap:butt;stroke-linejoin:miter;stroke-opacity:1"
         d="m 105.04223,15.92456 0.14404,23.813909"
         id="path36"
         inkscape:path-effect="#path-effect37"
         inkscape:original-d="m 105.04223,15.92456 0.14404,23.813909"
         transform="matrix(1.4681691,0,0,1.5487798,-1.5263814,-2.0352972)" />
      <path
         style="fill:none;stroke:#000000;stroke-width:0.264583px;stroke-linecap:butt;stroke-linejoin:miter;stroke-opacity:1"
         d="m 112.19787,14.180481 34.74581,25.557988"
         id="path37"
         inkscape:path-effect="#path-effect38"
         inkscape:original-d="m 112.19787,14.180481 34.74581,25.557988"
         transform="matrix(1.4681691,0,0,1.5487798,-1.5263814,-2.0352972)" />
      <path
         style="fill:none;stroke:#000000;stroke-width:0.264583px;stroke-linecap:butt;stroke-linejoin:miter;stroke-opacity:1"
         d="m 114.88814,12.190421 73.81294,27.548048"
         id="path38"
         inkscape:path-effect="#path-effect39"
         inkscape:original-d="m 114.88814,12.190421 73.81294,27.548048"
         transform="matrix(1.4681691,0,0,1.5487798,-1.5263814,-2.0352972)" />
      <path
         style="fill:none;stroke:#000000;stroke-width:0.264583px;stroke-linecap:butt;stroke-linejoin:miter;stroke-opacity:1"
         d="M 95.867084,14.709131 63.428858,39.738469"
         id="path39"
         inkscape:path-effect="#path-effect40"
         inkscape:original-d="M 95.867084,14.709131 63.428858,39.738469"
         transform="matrix(1.4681691,0,0,1.5487798,-1.5263814,-2.0352972)" />
      <text
         xml:space="preserve"
         style="font-style:normal;font-variant:normal;font-weight:normal;font-stretch:normal;font-size:7.9795px;font-family:Sans;-inkscape-font-specification:'Sans, Normal';font-variant-ligatures:normal;font-variant-caps:normal;font-variant-numeric:normal;font-variant-east-asian:normal;fill:#000000;fill-opacity:1;stroke-width:0.398974"
         x="113.68581"
         y="39.604298"
         id="text41"
         transform="scale(0.97362833,1.027086)"><tspan
           sodipodi:role="line"
           id="tspan41"
           style="stroke-width:0.398974"
           x="113.68581"
           y="39.604298">F</tspan></text>
      <text
         xml:space="preserve"
         style="font-style:normal;font-variant:normal;font-weight:normal;font-stretch:normal;font-size:7.9795px;font-family:Sans;-inkscape-font-specification:'Sans, Normal';font-variant-ligatures:normal;font-variant-caps:normal;font-variant-numeric:normal;font-variant-east-asian:normal;fill:#000000;fill-opacity:1;stroke-width:0.398974"
         x="156.93782"
         y="39.986515"
         id="text42"
         transform="scale(0.97362833,1.027086)"><tspan
           sodipodi:role="line"
           id="tspan42"
           style="stroke-width:0.398974"
           x="156.93782"
           y="39.986515">CC</tspan></text>
      <text
         xml:space="preserve"
         style="font-style:normal;font-variant:normal;font-weight:normal;font-stretch:normal;font-size:7.9795px;font-family:Sans;-inkscape-font-specification:'Sans, Normal';font-variant-ligatures:normal;font-variant-caps:normal;font-variant-numeric:normal;font-variant-east-asian:normal;fill:#000000;fill-opacity:1;stroke-width:0.398974"
         x="193.8167"
         y="38.671535"
         id="text43"
         transform="scale(0.97362833,1.027086)"><tspan
           sodipodi:role="line"
           id="tspan43"
           style="stroke-width:0.398974"
           x="193.8167"
           y="38.671535">C</tspan></text>
      <text
         xml:space="preserve"
         style="font-style:normal;font-variant:normal;font-weight:normal;font-stretch:normal;font-size:7.9795px;font-family:Sans;-inkscape-font-specification:'Sans, Normal';font-variant-ligatures:normal;font-variant-caps:normal;font-variant-numeric:normal;font-variant-east-asian:normal;fill:#000000;fill-opacity:1;stroke-width:0.398974"
         x="236.34282"
         y="32.764835"
         id="text44"
         transform="scale(0.97362833,1.027086)"><tspan
           sodipodi:role="line"
           id="tspan44"
           style="stroke-width:0.398974"
           x="236.34282"
           y="32.764835">FF</tspan></text>
      <text
         xml:space="preserve"
         style="font-style:normal;font-variant:normal;font-weight:normal;font-stretch:normal;font-size:7.9795px;font-family:Sans;-inkscape-font-specification:'Sans, Normal';font-variant-ligatures:normal;font-variant-caps:normal;font-variant-numeric:normal;font-variant-east-asian:normal;fill:#000000;fill-opacity:1;stroke-width:0.398974"
         x="229.67519"
         y="96.871407"
         id="text48"
         transform="scale(0.97362832,1.027086)"><tspan
           sodipodi:role="line"
           id="tspan48"
           style="stroke-width:0.398974"
           x="229.67519"
           y="96.871407">F</tspan></text>
      <path
         style="fill:none;stroke:#000000;stroke-width:0.264583px;stroke-linecap:butt;stroke-linejoin:miter;stroke-opacity:1"
         d="M 27.733241,77.661311 76.259176,118.97118"
         id="path50"
         inkscape:path-effect="#path-effect50"
         inkscape:original-d="M 27.733241,77.661311 76.259176,118.97118" />
      <path
         style="fill:none;stroke:#000000;stroke-width:0.264583px;stroke-linecap:butt;stroke-linejoin:miter;stroke-opacity:1"
         d="M 43.080691,73.973827 174.10047,116.07252"
         id="path51"
         inkscape:path-effect="#path-effect51"
         inkscape:original-d="M 43.080691,73.973827 174.10047,116.07252" />
      <path
         style="fill:none;stroke:#000000;stroke-width:0.264583px;stroke-linecap:butt;stroke-linejoin:miter;stroke-opacity:1"
         d="M 267.04321,78.511291 197.27629,119.66054"
         id="path52"
         inkscape:path-effect="#path-effect52"
         inkscape:original-d="M 267.04321,78.511291 197.27629,119.66054" />
    </g>
  </g>
</svg>
